<svg width="59" height="59" viewBox="0 0 59 59" fill="none" xmlns="http://www.w3.org/2000/svg">
<path d="M13.957 27.3878C13.957 24.4676 16.46 21.9645 19.3802 21.9645C22.3004 21.9645 24.8035 24.4676 24.3863 26.9706C24.8035 31.5595 26.4722 36.1484 28.9752 39.0686C31.4782 35.7312 33.5641 30.7251 33.5641 26.9706C33.5641 24.0504 35.65 21.5474 38.9873 21.5474C41.9075 21.5474 44.8277 23.6332 44.8277 26.5534C44.8277 29.4736 42.3247 31.9767 39.4045 31.9767H38.153C36.9015 36.5655 33.9813 41.1544 31.0611 43.6575L29.3924 44.909L27.7237 44.0746C23.9691 41.1544 21.4661 36.9827 20.2146 32.3938C16.8772 33.2282 13.957 30.308 13.957 27.3878Z" fill="#E15A1D"/>
<circle cx="29.5" cy="29.5" r="25" stroke="#E15A1D" stroke-width="5"/>
</svg>
